<svg xmlns="http://www.w3.org/2000/svg" viewBox="0 0 512 512"><defs><linearGradient id="g" x1="0" y1="0" x2="1" y2="1"><stop offset="0" stop-color="#fff2a8"/><stop offset=".35" stop-color="#f6b72b"/><stop offset=".7" stop-color="#ffd75a"/><stop offset="1" stop-color="#b86a00"/></linearGradient></defs><rect width="512" height="512" rx="96" fill="#050505"/><circle cx="256" cy="256" r="222" fill="none" stroke="url(#g)" stroke-width="14"/><g fill="url(#g)" stroke="#8a4d00" stroke-width="3"><path d="M202 145l54-55 54 55-18 12h-72z"/><circle cx="202" cy="145" r="9"/><circle cx="256" cy="90" r="9"/><circle cx="310" cy="145" r="9"/><rect x="206" y="145" width="100" height="28" rx="10"/></g><g fill="url(#g)"><rect x="210" y="155" width="92" height="150" rx="42"/><rect x="174" y="294" width="164" height="20" rx="10"/><path d="M196 304c0 50 27 78 60 78s60-28 60-78h-20c0 36-15 55-40 55s-40-19-40-55z"/><rect x="244" y="360" width="24" height="48" rx="8"/><rect x="220" y="400" width="72" height="14" rx="7"/></g><g fill="#050505"><rect x="195" y="188" width="30" height="13" rx="6"/><rect x="195" y="218" width="30" height="13" rx="6"/><rect x="195" y="248" width="30" height="13" rx="6"/><circle cx="322" cy="248" r="9"/></g><path d="M348 210c55-8 91 17 91 57 0 26-17 44-43 51l-3 28-25-22c-14 1-27-2-38-9 13-11 20-26 20-44 0-25-7-45-2-61z" fill="url(#g)" stroke="#8a4d00" stroke-width="5"/><circle cx="366" cy="268" r="8" fill="#050505"/><circle cx="392" cy="268" r="8" fill="#050505"/><circle cx="418" cy="268" r="8" fill="#050505"/><text x="256" y="465" text-anchor="middle" font-family="DejaVu Sans,Arial,sans-serif" font-size="58" font-weight="900" fill="url(#g)">Asmar</text><rect x="187" y="474" width="138" height="30" rx="15" fill="url(#g)"/><text x="256" y="497" text-anchor="middle" font-family="DejaVu Sans,Arial,sans-serif" font-size="23" font-weight="900" fill="#050505">Chat</text></svg>